<svg width="15" height="14" viewBox="0 0 15 14" fill="none" xmlns="http://www.w3.org/2000/svg">
<path fill-rule="evenodd" clip-rule="evenodd" d="M4.47084 4.83766C4.24304 5.06546 4.24304 5.43481 4.47084 5.66262C4.69865 5.89042 5.06799 5.89042 5.2958 5.66262L7.79999 3.15843L10.3042 5.66262C10.532 5.89042 10.9013 5.89042 11.1291 5.66262C11.3569 5.43481 11.3569 5.06546 11.1291 4.83766L8.21247 1.92099C8.10307 1.8116 7.9547 1.75014 7.79999 1.75014C7.64528 1.75014 7.49691 1.8116 7.38751 1.92099L4.47084 4.83766Z" fill="#8992A9"/>
<path fill-rule="evenodd" clip-rule="evenodd" d="M11.1291 9.16262C11.3569 8.93482 11.3569 8.56547 11.1291 8.33766C10.9013 8.10986 10.532 8.10986 10.3042 8.33766L7.79999 10.8419L5.2958 8.33766C5.06799 8.10986 4.69865 8.10986 4.47084 8.33766C4.24304 8.56547 4.24304 8.93482 4.47084 9.16262L7.38751 12.0793C7.61531 12.3071 7.98466 12.3071 8.21247 12.0793L11.1291 9.16262Z" fill="#8992A9"/>
</svg>
