<svg width="15" height="14" viewBox="0 0 15 14" fill="none" xmlns="http://www.w3.org/2000/svg">
<path fill-rule="evenodd" clip-rule="evenodd" d="M3.87105 4.83752C3.64324 5.06533 3.64324 5.43467 3.87105 5.66248C4.09886 5.89028 4.4682 5.89028 4.69601 5.66248L7.2002 3.15829L9.70438 5.66248C9.93219 5.89028 10.3015 5.89029 10.5293 5.66248C10.7571 5.43467 10.7571 5.06533 10.5293 4.83752L7.61267 1.92085C7.50328 1.81146 7.35491 1.75 7.2002 1.75C7.04549 1.75 6.89711 1.81146 6.78772 1.92085L3.87105 4.83752Z" fill="#8992A9"/>
<path fill-rule="evenodd" clip-rule="evenodd" d="M10.5293 9.16232C10.7571 8.93451 10.7571 8.56516 10.5293 8.33736C10.3015 8.10955 9.93219 8.10955 9.70438 8.33736L7.2002 10.8415L4.69601 8.33736C4.4682 8.10955 4.09886 8.10955 3.87105 8.33736C3.64324 8.56516 3.64324 8.93451 3.87105 9.16232L6.78772 12.079C7.01552 12.3068 7.38487 12.3068 7.61267 12.079L10.5293 9.16232Z" fill="#8992A9"/>
</svg>
