<svg width="14" height="14" viewBox="0 0 14 14" fill="none" xmlns="http://www.w3.org/2000/svg">
<path fill-rule="evenodd" clip-rule="evenodd" d="M3.67085 4.83789C3.44305 5.06569 3.44305 5.43504 3.67085 5.66284C3.89866 5.89065 4.26801 5.89065 4.49581 5.66284L7 3.15866L9.50419 5.66285C9.73199 5.89065 10.1013 5.89065 10.3291 5.66285C10.557 5.43504 10.557 5.06569 10.3291 4.83789L7.41248 1.92122C7.30308 1.81182 7.15471 1.75037 7 1.75037C6.84529 1.75037 6.69692 1.81182 6.58752 1.92122L3.67085 4.83789ZM10.3291 9.16285C10.557 8.93504 10.557 8.56569 10.3291 8.33789C10.1013 8.11008 9.73199 8.11008 9.50419 8.33789L7 10.8421L4.49581 8.33789C4.26801 8.11008 3.89866 8.11008 3.67085 8.33789C3.44305 8.56569 3.44305 8.93504 3.67085 9.16285L6.58752 12.0795C6.81533 12.3073 7.18467 12.3073 7.41248 12.0795L10.3291 9.16285Z" fill="#8992A9"/>
</svg>
