<svg width="15" height="14" viewBox="0 0 15 14" fill="none" xmlns="http://www.w3.org/2000/svg">
<path fill-rule="evenodd" clip-rule="evenodd" d="M4.47066 4.83752C4.24285 5.06533 4.24285 5.43467 4.47066 5.66248C4.69846 5.89028 5.06781 5.89028 5.29562 5.66248L7.7998 3.15829L10.304 5.66248C10.5318 5.89028 10.9011 5.89029 11.1289 5.66248C11.3568 5.43467 11.3568 5.06533 11.1289 4.83752L8.21228 1.92085C8.10289 1.81146 7.95451 1.75 7.7998 1.75C7.6451 1.75 7.49672 1.81146 7.38733 1.92085L4.47066 4.83752Z" fill="#8992A9"/>
<path fill-rule="evenodd" clip-rule="evenodd" d="M11.129 9.16232C11.3568 8.93451 11.3568 8.56516 11.129 8.33736C10.9011 8.10955 10.5318 8.10955 10.304 8.33736L7.7998 10.8415L5.29562 8.33736C5.06781 8.10955 4.69846 8.10955 4.47066 8.33736C4.24285 8.56516 4.24285 8.93451 4.47066 9.16232L7.38733 12.079C7.61513 12.3068 7.98448 12.3068 8.21228 12.079L11.129 9.16232Z" fill="#8992A9"/>
</svg>
