<svg width="15" height="14" viewBox="0 0 15 14" fill="none" xmlns="http://www.w3.org/2000/svg">
<path fill-rule="evenodd" clip-rule="evenodd" d="M4.17085 4.83752C3.94305 5.06533 3.94305 5.43467 4.17085 5.66248C4.39866 5.89028 4.76801 5.89028 4.99581 5.66248L7.5 3.15829L10.0042 5.66248C10.232 5.89028 10.6013 5.89029 10.8291 5.66248C11.057 5.43467 11.057 5.06533 10.8291 4.83752L7.91248 1.92085C7.80308 1.81146 7.65471 1.75 7.5 1.75C7.34529 1.75 7.19692 1.81146 7.08752 1.92085L4.17085 4.83752Z" fill="#FF0000"/>
<path fill-rule="evenodd" clip-rule="evenodd" d="M10.8291 9.16256C11.057 8.93475 11.057 8.56541 10.8291 8.3376C10.6013 8.1098 10.232 8.1098 10.0042 8.3376L7.5 10.8418L4.99581 8.3376C4.76801 8.1098 4.39866 8.1098 4.17085 8.3376C3.94305 8.56541 3.94305 8.93476 4.17085 9.16256L7.08752 12.0792C7.31533 12.307 7.68467 12.307 7.91248 12.0792L10.8291 9.16256Z" fill="#C4C8D4"/>
</svg>
