<svg width="15" height="14" viewBox="0 0 15 14" fill="none" xmlns="http://www.w3.org/2000/svg">
<path fill-rule="evenodd" clip-rule="evenodd" d="M3.87081 4.83766C3.643 5.06546 3.643 5.43481 3.87081 5.66262C4.09861 5.89042 4.46796 5.89042 4.69576 5.66262L7.19995 3.15843L9.70414 5.66262C9.93194 5.89042 10.3013 5.89042 10.5291 5.66262C10.7569 5.43481 10.7569 5.06546 10.5291 4.83766L7.61243 1.92099C7.50303 1.8116 7.35466 1.75014 7.19995 1.75014C7.04524 1.75014 6.89687 1.8116 6.78747 1.92099L3.87081 4.83766Z" fill="#8992A9"/>
<path fill-rule="evenodd" clip-rule="evenodd" d="M10.5291 9.16262C10.7569 8.93482 10.7569 8.56547 10.5291 8.33766C10.3013 8.10986 9.93194 8.10986 9.70414 8.33766L7.19995 10.8419L4.69576 8.33766C4.46796 8.10986 4.09861 8.10986 3.87081 8.33766C3.643 8.56547 3.643 8.93482 3.87081 9.16262L6.78747 12.0793C7.01528 12.3071 7.38462 12.3071 7.61243 12.0793L10.5291 9.16262Z" fill="#8992A9"/>
</svg>
