<svg width="14" height="14" viewBox="0 0 14 14" fill="none" xmlns="http://www.w3.org/2000/svg">
<path fill-rule="evenodd" clip-rule="evenodd" d="M3.67085 4.83825C3.44305 5.06606 3.44305 5.43541 3.67085 5.66321C3.89866 5.89102 4.26801 5.89102 4.49581 5.66321L7 3.15902L9.50419 5.66321C9.73199 5.89102 10.1013 5.89102 10.3291 5.66321C10.557 5.43541 10.557 5.06606 10.3291 4.83825L7.41248 1.92159C7.30308 1.81219 7.15471 1.75073 7 1.75073C6.84529 1.75073 6.69692 1.81219 6.58752 1.92159L3.67085 4.83825ZM10.3291 9.16321C10.557 8.93541 10.557 8.56606 10.3291 8.33825C10.1013 8.11045 9.73199 8.11045 9.50419 8.33825L7 10.8424L4.49581 8.33825C4.26801 8.11045 3.89866 8.11045 3.67085 8.33825C3.44305 8.56606 3.44305 8.93541 3.67085 9.16321L6.58752 12.0799C6.81533 12.3077 7.18467 12.3077 7.41248 12.0799L10.3291 9.16321Z" fill="#8992A9"/>
</svg>
