<svg width="15" height="14" viewBox="0 0 15 14" fill="none" xmlns="http://www.w3.org/2000/svg">
<path fill-rule="evenodd" clip-rule="evenodd" d="M4.27083 4.83766C4.04302 5.06546 4.04302 5.43481 4.27083 5.66262C4.49864 5.89042 4.86798 5.89042 5.09579 5.66262L7.59998 3.15843L10.1042 5.66262C10.332 5.89042 10.7013 5.89042 10.9291 5.66262C11.1569 5.43481 11.1569 5.06546 10.9291 4.83766L8.01245 1.92099C7.90306 1.8116 7.75469 1.75014 7.59998 1.75014C7.44527 1.75014 7.29689 1.8116 7.1875 1.92099L4.27083 4.83766Z" fill="#8992A9"/>
<path fill-rule="evenodd" clip-rule="evenodd" d="M10.9291 9.16262C11.1569 8.93482 11.1569 8.56547 10.9291 8.33766C10.7013 8.10986 10.332 8.10986 10.1042 8.33766L7.59998 10.8419L5.09579 8.33766C4.86798 8.10986 4.49864 8.10986 4.27083 8.33766C4.04302 8.56547 4.04302 8.93482 4.27083 9.16262L7.1875 12.0793C7.4153 12.3071 7.78465 12.3071 8.01245 12.0793L10.9291 9.16262Z" fill="#8992A9"/>
</svg>
