<svg width="14" height="14" viewBox="0 0 14 14" fill="none" xmlns="http://www.w3.org/2000/svg">
<path fill-rule="evenodd" clip-rule="evenodd" d="M3.67085 4.83752C3.44305 5.06533 3.44305 5.43467 3.67085 5.66248C3.89866 5.89028 4.26801 5.89028 4.49581 5.66248L7 3.15829L9.50419 5.66248C9.73199 5.89028 10.1013 5.89029 10.3291 5.66248C10.557 5.43467 10.557 5.06533 10.3291 4.83752L7.41248 1.92085C7.30308 1.81146 7.15471 1.75 7 1.75C6.84529 1.75 6.69692 1.81146 6.58752 1.92085L3.67085 4.83752Z" fill="#8992A9"/>
<path fill-rule="evenodd" clip-rule="evenodd" d="M10.3291 9.16256C10.557 8.93475 10.557 8.56541 10.3291 8.3376C10.1013 8.1098 9.73199 8.1098 9.50419 8.3376L7 10.8418L4.49581 8.3376C4.26801 8.1098 3.89866 8.1098 3.67085 8.3376C3.44305 8.56541 3.44305 8.93476 3.67085 9.16256L6.58752 12.0792C6.81533 12.307 7.18467 12.307 7.41248 12.0792L10.3291 9.16256Z" fill="#8992A9"/>
</svg>
