<svg width="15" height="14" viewBox="0 0 15 14" fill="none" xmlns="http://www.w3.org/2000/svg">
<path fill-rule="evenodd" clip-rule="evenodd" d="M4.07124 4.83752C3.84344 5.06533 3.84344 5.43467 4.07124 5.66248C4.29905 5.89028 4.6684 5.89028 4.8962 5.66248L7.40039 3.15829L9.90458 5.66248C10.1324 5.89028 10.5017 5.89029 10.7295 5.66248C10.9573 5.43467 10.9573 5.06533 10.7295 4.83752L7.81287 1.92085C7.70347 1.81146 7.5551 1.75 7.40039 1.75C7.24568 1.75 7.09731 1.81146 6.98791 1.92085L4.07124 4.83752Z" fill="#8992A9"/>
<path fill-rule="evenodd" clip-rule="evenodd" d="M10.7295 9.16232C10.9573 8.93451 10.9573 8.56516 10.7295 8.33736C10.5017 8.10955 10.1324 8.10955 9.90458 8.33736L7.40039 10.8415L4.8962 8.33736C4.6684 8.10955 4.29905 8.10955 4.07125 8.33736C3.84344 8.56516 3.84344 8.93451 4.07125 9.16232L6.98791 12.079C7.21572 12.3068 7.58506 12.3068 7.81287 12.079L10.7295 9.16232Z" fill="#8992A9"/>
</svg>
