<svg width="15" height="14" viewBox="0 0 15 14" fill="none" xmlns="http://www.w3.org/2000/svg">
<path fill-rule="evenodd" clip-rule="evenodd" d="M4.07076 4.83766C3.84295 5.06546 3.84295 5.43481 4.07076 5.66262C4.29856 5.89042 4.66791 5.89042 4.89571 5.66262L7.3999 3.15843L9.90409 5.66262C10.1319 5.89042 10.5012 5.89042 10.729 5.66262C10.9569 5.43481 10.9569 5.06546 10.729 4.83766L7.81238 1.92099C7.70299 1.8116 7.55461 1.75014 7.3999 1.75014C7.24519 1.75014 7.09682 1.8116 6.98742 1.92099L4.07076 4.83766Z" fill="#8992A9"/>
<path fill-rule="evenodd" clip-rule="evenodd" d="M10.729 9.16262C10.9569 8.93482 10.9569 8.56547 10.729 8.33766C10.5012 8.10986 10.1319 8.10986 9.90409 8.33766L7.3999 10.8419L4.89571 8.33766C4.66791 8.10986 4.29856 8.10986 4.07076 8.33766C3.84295 8.56547 3.84295 8.93482 4.07076 9.16262L6.98742 12.0793C7.21523 12.3071 7.58458 12.3071 7.81238 12.0793L10.729 9.16262Z" fill="#8992A9"/>
</svg>
