<svg width="14" height="14" viewBox="0 0 14 14" fill="none" xmlns="http://www.w3.org/2000/svg">
<path fill-rule="evenodd" clip-rule="evenodd" d="M3.67085 4.83801C3.44305 5.06581 3.44305 5.43516 3.67085 5.66297C3.89866 5.89077 4.26801 5.89077 4.49581 5.66297L7 3.15878L9.50419 5.66297C9.73199 5.89077 10.1013 5.89077 10.3291 5.66297C10.557 5.43516 10.557 5.06582 10.3291 4.83801L7.41248 1.92134C7.30308 1.81195 7.15471 1.75049 7 1.75049C6.84529 1.75049 6.69692 1.81195 6.58752 1.92134L3.67085 4.83801Z" fill="#3B72FF"/>
<path fill-rule="evenodd" clip-rule="evenodd" d="M10.3291 9.16305C10.557 8.93524 10.557 8.5659 10.3291 8.33809C10.1013 8.11028 9.73199 8.11028 9.50419 8.33809L7 10.8423L4.49581 8.33809C4.26801 8.11028 3.89866 8.11028 3.67085 8.33809C3.44305 8.5659 3.44305 8.93524 3.67085 9.16305L6.58752 12.0797C6.81533 12.3075 7.18467 12.3075 7.41248 12.0797L10.3291 9.16305Z" fill="#C4C8D4"/>
</svg>
