<svg width="14" height="14" viewBox="0 0 14 14" fill="none" xmlns="http://www.w3.org/2000/svg">
<path fill-rule="evenodd" clip-rule="evenodd" d="M3.67085 4.8385C3.44305 5.0663 3.44305 5.43565 3.67085 5.66346C3.89866 5.89126 4.26801 5.89126 4.49581 5.66346L7 3.15927L9.50419 5.66346C9.73199 5.89126 10.1013 5.89126 10.3291 5.66346C10.557 5.43565 10.557 5.0663 10.3291 4.8385L7.41248 1.92183C7.30308 1.81243 7.15471 1.75098 7 1.75098C6.84529 1.75098 6.69692 1.81243 6.58752 1.92183L3.67085 4.8385Z" fill="#C4C8D4"/>
<path fill-rule="evenodd" clip-rule="evenodd" d="M10.3291 9.16354C10.557 8.93573 10.557 8.56639 10.3291 8.33858C10.1013 8.11077 9.73199 8.11077 9.50419 8.33858L7 10.8428L4.49581 8.33858C4.26801 8.11077 3.89866 8.11077 3.67085 8.33858C3.44305 8.56639 3.44305 8.93573 3.67085 9.16354L6.58752 12.0802C6.81533 12.308 7.18467 12.308 7.41248 12.0802L10.3291 9.16354Z" fill="#3B72FF"/>
</svg>
