<svg width="14" height="14" viewBox="0 0 14 14" fill="none" xmlns="http://www.w3.org/2000/svg">
<path fill-rule="evenodd" clip-rule="evenodd" d="M3.67085 4.83766C3.44305 5.06546 3.44305 5.43481 3.67085 5.66262C3.89866 5.89042 4.26801 5.89042 4.49581 5.66262L7 3.15843L9.50419 5.66262C9.73199 5.89042 10.1013 5.89042 10.3291 5.66262C10.557 5.43481 10.557 5.06546 10.3291 4.83766L7.41248 1.92099C7.30308 1.8116 7.15471 1.75014 7 1.75014C6.84529 1.75014 6.69692 1.8116 6.58752 1.92099L3.67085 4.83766Z" fill="#8992A9"/>
<path fill-rule="evenodd" clip-rule="evenodd" d="M10.3291 9.16262C10.557 8.93482 10.557 8.56547 10.3291 8.33766C10.1013 8.10986 9.73199 8.10986 9.50419 8.33766L7 10.8419L4.49581 8.33766C4.26801 8.10986 3.89866 8.10986 3.67085 8.33766C3.44305 8.56547 3.44305 8.93482 3.67085 9.16262L6.58752 12.0793C6.81533 12.3071 7.18467 12.3071 7.41248 12.0793L10.3291 9.16262Z" fill="#8992A9"/>
</svg>
