<svg width="15" height="14" viewBox="0 0 15 14" fill="none" xmlns="http://www.w3.org/2000/svg">
<path fill-rule="evenodd" clip-rule="evenodd" d="M4.27046 4.83752C4.04266 5.06533 4.04266 5.43467 4.27046 5.66248C4.49827 5.89028 4.86762 5.89028 5.09542 5.66248L7.59961 3.15829L10.1038 5.66248C10.3316 5.89028 10.7009 5.89029 10.9288 5.66248C11.1566 5.43467 11.1566 5.06533 10.9288 4.83752L8.01209 1.92085C7.90269 1.81146 7.75432 1.75 7.59961 1.75C7.4449 1.75 7.29653 1.81146 7.18713 1.92085L4.27046 4.83752Z" fill="#8992A9"/>
<path fill-rule="evenodd" clip-rule="evenodd" d="M10.9288 9.16232C11.1566 8.93451 11.1566 8.56516 10.9288 8.33736C10.7009 8.10955 10.3316 8.10955 10.1038 8.33736L7.59961 10.8415L5.09542 8.33736C4.86762 8.10955 4.49827 8.10955 4.27046 8.33736C4.04266 8.56516 4.04266 8.93451 4.27046 9.16232L7.18713 12.079C7.41494 12.3068 7.78428 12.3068 8.01209 12.079L10.9288 9.16232Z" fill="#8992A9"/>
</svg>
