<svg width="22" height="22" viewBox="0 0 22 22" fill="none" xmlns="http://www.w3.org/2000/svg">
<path fill-rule="evenodd" clip-rule="evenodd" d="M4.58333 3.66666C3.06455 3.66666 1.83333 4.89788 1.83333 6.41666V15.5833C1.83333 17.1021 3.06455 18.3333 4.58333 18.3333H17.4167C18.9355 18.3333 20.1667 17.1021 20.1667 15.5833V6.41666C20.1667 4.89788 18.9355 3.66666 17.4167 3.66666H4.58333ZM3.75037 6.03344C3.89548 5.71856 4.21388 5.5 4.58333 5.5H17.4167C17.7861 5.5 18.1045 5.71856 18.2496 6.03344L11.5628 11.2343C11.2318 11.4918 10.7682 11.4918 10.4372 11.2343L3.75037 6.03344ZM3.66667 8.29092V13.6262L6.97823 10.8666L3.66667 8.29092ZM3.74266 15.9493C3.88396 16.2734 4.20719 16.5 4.58333 16.5H17.4167C17.7928 16.5 18.116 16.2734 18.2573 15.9493L13.5405 12.0187L12.6883 12.6815C11.6953 13.4538 10.3047 13.4538 9.31167 12.6815L8.45948 12.0187L3.74266 15.9493ZM18.3333 13.6262V8.29092L15.0218 10.8666L18.3333 13.6262Z" fill="#C4C8D4"/>
</svg>
