<svg width="22" height="22" viewBox="0 0 22 22" fill="none" xmlns="http://www.w3.org/2000/svg">
<path fill-rule="evenodd" clip-rule="evenodd" d="M4.58337 3.66673C3.06459 3.66673 1.83337 4.89794 1.83337 6.41672V15.5834C1.83337 17.1022 3.06459 18.3334 4.58337 18.3334H17.4167C18.9355 18.3334 20.1667 17.1022 20.1667 15.5834V6.41672C20.1667 4.89794 18.9355 3.66673 17.4167 3.66673H4.58337ZM3.75041 6.0335C3.89552 5.71862 4.21392 5.50006 4.58337 5.50006H17.4167C17.7862 5.50006 18.1046 5.71862 18.2497 6.0335L11.5628 11.2344C11.2318 11.4918 10.7683 11.4918 10.4373 11.2344L3.75041 6.0335ZM3.66671 8.29098V13.6263L6.97827 10.8666L3.66671 8.29098ZM3.7427 15.9494C3.884 16.2735 4.20723 16.5001 4.58337 16.5001H17.4167C17.7929 16.5001 18.1161 16.2735 18.2574 15.9494L13.5406 12.0187L12.6884 12.6815C11.6953 13.4539 10.3048 13.4539 9.31171 12.6815L8.45952 12.0187L3.7427 15.9494ZM18.3334 13.6263V8.29098L15.0218 10.8666L18.3334 13.6263Z" fill="#C4C8D4"/>
</svg>
