<svg width="22" height="22" viewBox="0 0 22 22" fill="none" xmlns="http://www.w3.org/2000/svg">
<path fill-rule="evenodd" clip-rule="evenodd" d="M4.58334 3.66724C3.06456 3.66724 1.83334 4.89845 1.83334 6.41724V15.5839C1.83334 17.1027 3.06456 18.3339 4.58334 18.3339H17.4167C18.9355 18.3339 20.1667 17.1027 20.1667 15.5839V6.41724C20.1667 4.89845 18.9355 3.66724 17.4167 3.66724H4.58334ZM3.75038 6.03401C3.89549 5.71913 4.21389 5.50057 4.58334 5.50057H17.4167C17.7861 5.50057 18.1045 5.71913 18.2496 6.03401L11.5628 11.2349C11.2318 11.4924 10.7682 11.4924 10.4372 11.2349L3.75038 6.03401ZM3.66668 8.29149V13.6268L6.97824 10.8671L3.66668 8.29149ZM3.74267 15.9499C3.88397 16.274 4.2072 16.5006 4.58334 16.5006H17.4167C17.7928 16.5006 18.116 16.274 18.2574 15.9499L13.5405 12.0192L12.6883 12.682C11.6953 13.4544 10.3047 13.4544 9.31167 12.682L8.45949 12.0192L3.74267 15.9499ZM18.3333 13.6268V8.29149L15.0218 10.8671L18.3333 13.6268Z" fill="#C4C8D4"/>
</svg>
