<svg width="22" height="22" viewBox="0 0 22 22" fill="none" xmlns="http://www.w3.org/2000/svg">
<path fill-rule="evenodd" clip-rule="evenodd" d="M4.58334 3.66748C3.06456 3.66748 1.83334 4.8987 1.83334 6.41748V15.5841C1.83334 17.1029 3.06456 18.3341 4.58334 18.3341H17.4167C18.9355 18.3341 20.1667 17.1029 20.1667 15.5841V6.41748C20.1667 4.8987 18.9355 3.66748 17.4167 3.66748H4.58334ZM3.75038 6.03426C3.89549 5.71938 4.21389 5.50081 4.58334 5.50081H17.4167C17.7861 5.50081 18.1045 5.71938 18.2496 6.03426L11.5628 11.2351C11.2318 11.4926 10.7682 11.4926 10.4372 11.2351L3.75038 6.03426ZM3.66668 8.29173V13.627L6.97824 10.8674L3.66668 8.29173ZM3.74267 15.9502C3.88397 16.2743 4.2072 16.5008 4.58334 16.5008H17.4167C17.7928 16.5008 18.116 16.2743 18.2574 15.9502L13.5405 12.0195L12.6883 12.6823C11.6953 13.4547 10.3047 13.4547 9.31167 12.6823L8.45949 12.0195L3.74267 15.9502ZM18.3333 13.627V8.29173L15.0218 10.8674L18.3333 13.627Z" fill="#C4C8D4"/>
</svg>
