<svg width="22" height="22" viewBox="0 0 22 22" fill="none" xmlns="http://www.w3.org/2000/svg">
<path fill-rule="evenodd" clip-rule="evenodd" d="M2.86376 14.365C2.95181 14.0595 3.11038 13.7815 3.3254 13.5558L13.4964 2.87822C14.8233 1.48526 16.9746 1.48526 18.3015 2.87822C19.6284 4.27118 19.6284 6.52962 18.3015 7.92258L18.1512 8.08036L19.896 9.91202C20.2565 10.2905 20.2565 10.904 19.896 11.2824L15.2807 16.1276C14.9202 16.506 14.3357 16.506 13.9752 16.1276C13.6148 15.7492 13.6148 15.1356 13.9752 14.7572L17.9379 10.5972L16.8458 9.45078L8.13048 18.6001C7.9569 18.7823 7.75087 18.926 7.52478 19.0232L7.51379 19.0347L7.50913 19.0298C7.46016 19.0503 7.41028 19.0687 7.3596 19.0847L4.21372 20.0838C3.5622 20.2907 2.85508 20.1044 2.37377 19.5991C1.89246 19.0939 1.71505 18.3515 1.91213 17.6676L2.86376 14.365ZM16.8458 6.70995L16.9961 6.55216C17.602 5.91606 17.602 4.88474 16.9961 4.24864C16.3902 3.61254 15.4078 3.61254 14.8018 4.24864L14.6515 4.40642L16.8458 6.70995ZM13.3461 5.77684L15.5404 8.08037L7.61515 16.4003L5.42089 14.0967L13.3461 5.77684ZM4.3214 16L4.39145 15.7569L6.03378 17.481L5.8022 17.5545L3.67918 18.2287L4.3214 16Z" fill="#C4C8D4"/>
</svg>
