<svg width="22" height="22" viewBox="0 0 22 22" fill="none" xmlns="http://www.w3.org/2000/svg">
<path fill-rule="evenodd" clip-rule="evenodd" d="M2.8641 14.3653C2.95214 14.0597 3.11072 13.7817 3.32574 13.556L13.4968 2.87846C14.8237 1.4855 16.975 1.4855 18.3018 2.87846C19.6287 4.27142 19.6287 6.52986 18.3018 7.92283L18.1515 8.08061L19.8963 9.91227C20.2568 10.2907 20.2568 10.9043 19.8963 11.2827L15.281 16.1278C14.9205 16.5063 14.3361 16.5063 13.9756 16.1278C13.6151 15.7494 13.6151 15.1359 13.9756 14.7574L17.9382 10.5975L16.8461 9.45103L8.13081 18.6004C7.95723 18.7826 7.75121 18.9262 7.52512 19.0234L7.51413 19.0349L7.50946 19.0301C7.4605 19.0506 7.41062 19.0689 7.35993 19.085L4.21405 20.084C3.56253 20.2909 2.85542 20.1047 2.37411 19.5994C1.8928 19.0941 1.71538 18.3518 1.91247 17.6678L2.8641 14.3653ZM16.8461 6.71019L16.9964 6.55241C17.6024 5.91631 17.6024 4.88498 16.9964 4.24888C16.3905 3.61278 15.4081 3.61278 14.8022 4.24888L14.6519 4.40666L16.8461 6.71019ZM13.3465 5.77708L15.5407 8.08061L7.61549 16.4005L5.42123 14.097L13.3465 5.77708ZM4.32173 16.0002L4.39178 15.7571L6.03411 17.4812L5.80254 17.5548L3.67952 18.229L4.32173 16.0002Z" fill="#C4C8D4"/>
</svg>
