<svg width="22" height="22" viewBox="0 0 22 22" fill="none" xmlns="http://www.w3.org/2000/svg">
<path fill-rule="evenodd" clip-rule="evenodd" d="M2.8641 14.3655C2.95214 14.06 3.11072 13.782 3.32574 13.5562L13.4968 2.87871C14.8237 1.48574 16.975 1.48574 18.3018 2.87871C19.6287 4.27167 19.6287 6.53011 18.3018 7.92307L18.1515 8.08085L19.8963 9.91251C20.2568 10.2909 20.2568 10.9045 19.8963 11.2829L15.281 16.1281C14.9205 16.5065 14.3361 16.5065 13.9756 16.1281C13.6151 15.7497 13.6151 15.1361 13.9756 14.7577L17.9382 10.5977L16.8461 9.45127L8.13081 18.6006C7.95723 18.7828 7.75121 18.9264 7.52512 19.0237L7.51413 19.0352L7.50946 19.0303C7.4605 19.0508 7.41062 19.0691 7.35993 19.0852L4.21405 20.0843C3.56253 20.2912 2.85542 20.1049 2.37411 19.5996C1.8928 19.0943 1.71538 18.352 1.91247 17.6681L2.8641 14.3655ZM16.8461 6.71043L16.9964 6.55265C17.6024 5.91655 17.6024 4.88523 16.9964 4.24913C16.3905 3.61302 15.4081 3.61302 14.8022 4.24913L14.6519 4.40691L16.8461 6.71043ZM13.3465 5.77733L15.5407 8.08085L7.61549 16.4008L5.42123 14.0972L13.3465 5.77733ZM4.32173 16.0005L4.39178 15.7574L6.03411 17.4815L5.80254 17.555L3.67952 18.2292L4.32173 16.0005Z" fill="#C4C8D4"/>
</svg>
