<svg width="22" height="22" viewBox="0 0 22 22" fill="none" xmlns="http://www.w3.org/2000/svg">
<path fill-rule="evenodd" clip-rule="evenodd" d="M2.8641 14.3654C2.95214 14.0598 3.11072 13.7818 3.32574 13.5561L13.4968 2.87858C14.8237 1.48562 16.975 1.48562 18.3018 2.87858C19.6287 4.27155 19.6287 6.52998 18.3018 7.92295L18.1515 8.08073L19.8963 9.91239C20.2568 10.2908 20.2568 10.9044 19.8963 11.2828L15.281 16.128C14.9205 16.5064 14.3361 16.5064 13.9756 16.128C13.6151 15.7495 13.6151 15.136 13.9756 14.7576L17.9382 10.5976L16.8461 9.45115L8.13081 18.6005C7.95723 18.7827 7.75121 18.9263 7.52512 19.0235L7.51413 19.0351L7.50946 19.0302C7.4605 19.0507 7.41062 19.069 7.35993 19.0851L4.21405 20.0841C3.56253 20.291 2.85542 20.1048 2.37411 19.5995C1.8928 19.0942 1.71538 18.3519 1.91247 17.6679L2.8641 14.3654ZM16.8461 6.71031L16.9964 6.55253C17.6024 5.91643 17.6024 4.8851 16.9964 4.249C16.3905 3.6129 15.4081 3.6129 14.8022 4.249L14.6519 4.40679L16.8461 6.71031ZM13.3465 5.7772L15.5407 8.08073L7.61549 16.4006L5.42123 14.0971L13.3465 5.7772ZM4.32173 16.0003L4.39178 15.7572L6.03411 17.4813L5.80254 17.5549L3.67952 18.2291L4.32173 16.0003Z" fill="#C4C8D4"/>
</svg>
