<svg width="22" height="22" viewBox="0 0 22 22" fill="none" xmlns="http://www.w3.org/2000/svg">
<path fill-rule="evenodd" clip-rule="evenodd" d="M2.86409 14.3649C2.95214 14.0593 3.11071 13.7813 3.32573 13.5556L13.4968 2.87806C14.8236 1.4851 16.975 1.4851 18.3018 2.87806C19.6287 4.27102 19.6287 6.52946 18.3018 7.92242L18.1515 8.0802L19.8963 9.91186C20.2568 10.2903 20.2568 10.9039 19.8963 11.2823L15.281 16.1274C14.9205 16.5059 14.3361 16.5059 13.9756 16.1274C13.6151 15.749 13.6151 15.1355 13.9756 14.757L17.9382 10.5971L16.8461 9.45062L8.13081 18.6C7.95723 18.7822 7.7512 18.9258 7.52511 19.023L7.51412 19.0345L7.50946 19.0296C7.4605 19.0502 7.41061 19.0685 7.35993 19.0846L4.21405 20.0836C3.56253 20.2905 2.85542 20.1043 2.37411 19.599C1.89279 19.0937 1.71538 18.3514 1.91246 17.6674L2.86409 14.3649ZM16.8461 6.70979L16.9964 6.552C17.6024 5.9159 17.6024 4.88458 16.9964 4.24848C16.3905 3.61238 15.4081 3.61238 14.8022 4.24848L14.6519 4.40626L16.8461 6.70979ZM13.3465 5.77668L15.5407 8.0802L7.61548 16.4001L5.42123 14.0966L13.3465 5.77668ZM4.32173 15.9998L4.39178 15.7567L6.03411 17.4808L5.80253 17.5544L3.67952 18.2286L4.32173 15.9998Z" fill="#C4C8D4"/>
</svg>
