<svg width="22" height="22" viewBox="0 0 22 22" fill="none" xmlns="http://www.w3.org/2000/svg">
<path fill-rule="evenodd" clip-rule="evenodd" d="M2.86413 14.3649C2.95217 14.0594 3.11075 13.7814 3.32577 13.5557L13.4968 2.87812C14.8237 1.48516 16.975 1.48516 18.3019 2.87812C19.6288 4.27108 19.6288 6.52952 18.3019 7.92248L18.1516 8.08027L19.8963 9.91193C20.2568 10.2904 20.2568 10.9039 19.8963 11.2823L15.281 16.1275C14.9205 16.5059 14.3361 16.5059 13.9756 16.1275C13.6151 15.7491 13.6151 15.1355 13.9756 14.7571L17.9382 10.5971L16.8462 9.45068L8.13084 18.6C7.95726 18.7822 7.75124 18.9259 7.52515 19.0231L7.51416 19.0346L7.5095 19.0297C7.46053 19.0502 7.41065 19.0686 7.35997 19.0846L4.21408 20.0837C3.56256 20.2906 2.85545 20.1043 2.37414 19.599C1.89283 19.0938 1.71541 18.3514 1.9125 17.6675L2.86413 14.3649ZM16.8462 6.70985L16.9965 6.55206C17.6024 5.91596 17.6024 4.88464 16.9965 4.24854C16.3905 3.61244 15.4081 3.61244 14.8022 4.24854L14.6519 4.40632L16.8462 6.70985ZM13.3465 5.77674L15.5408 8.08027L7.61552 16.4002L5.42126 14.0966L13.3465 5.77674ZM4.32176 15.9999L4.39181 15.7568L6.03414 17.4809L5.80257 17.5544L3.67955 18.2286L4.32176 15.9999Z" fill="#C4C8D4"/>
</svg>
