<svg width="56" height="54" viewBox="0 0 56 54" fill="none" xmlns="http://www.w3.org/2000/svg">
<path fill-rule="evenodd" clip-rule="evenodd" d="M37.1663 24.7085C37.1663 28.5055 34.0883 31.5835 30.2913 31.5835C28.704 31.5835 27.2423 31.0455 26.0786 30.142C26.0348 30.2348 25.9745 30.3217 25.8979 30.3983L20.3979 35.8983C20.0399 36.2563 19.4595 36.2563 19.1015 35.8983C18.7435 35.5404 18.7435 34.96 19.1015 34.602L24.6015 29.102C24.6782 29.0253 24.7651 28.965 24.8578 28.9212C23.9543 27.7575 23.4163 26.2958 23.4163 24.7085C23.4163 20.9115 26.4944 17.8335 30.2913 17.8335C34.0883 17.8335 37.1663 20.9115 37.1663 24.7085ZM35.333 24.7085C35.333 21.9241 33.0758 19.6668 30.2913 19.6668C27.5069 19.6668 25.2497 21.9241 25.2497 24.7085C25.2497 27.4929 27.5069 29.7502 30.2913 29.7502C33.0758 29.7502 35.333 27.4929 35.333 24.7085Z" fill="#C4C8D4"/>
</svg>
