<svg width="48" height="48" viewBox="0 0 48 48" fill="none" xmlns="http://www.w3.org/2000/svg">
<path fill-rule="evenodd" clip-rule="evenodd" d="M33.1667 21.709C33.1667 25.5059 30.0886 28.584 26.2917 28.584C24.7043 28.584 23.2427 28.046 22.079 27.1425C22.0351 27.2352 21.9749 27.3221 21.8982 27.3988L16.3982 32.8988C16.0402 33.2568 15.4598 33.2568 15.1018 32.8988C14.7438 32.5409 14.7438 31.9605 15.1018 31.6025L20.6018 26.1025C20.6785 26.0258 20.7654 25.9655 20.8582 25.9217C19.9546 24.758 19.4167 23.2963 19.4167 21.709C19.4167 17.912 22.4947 14.834 26.2917 14.834C30.0886 14.834 33.1667 17.912 33.1667 21.709ZM31.3333 21.709C31.3333 18.9245 29.0761 16.6673 26.2917 16.6673C23.5072 16.6673 21.25 18.9245 21.25 21.709C21.25 24.4934 23.5072 26.7507 26.2917 26.7507C29.0761 26.7507 31.3333 24.4934 31.3333 21.709Z" fill="#3B72FF"/>
</svg>
