<svg width="56" height="54" viewBox="0 0 56 54" fill="none" xmlns="http://www.w3.org/2000/svg">
<path fill-rule="evenodd" clip-rule="evenodd" d="M37.1667 24.7087C37.1667 28.5057 34.0886 31.5837 30.2917 31.5837C28.7043 31.5837 27.2426 31.0458 26.079 30.1423C26.0351 30.235 25.9749 30.3219 25.8982 30.3986L20.3982 35.8986C20.0402 36.2566 19.4598 36.2566 19.1018 35.8986C18.7438 35.5406 18.7438 34.9602 19.1018 34.6022L24.6018 29.1022C24.6785 29.0255 24.7654 28.9653 24.8581 28.9214C23.9546 27.7578 23.4167 26.2961 23.4167 24.7087C23.4167 20.9118 26.4947 17.8337 30.2917 17.8337C34.0886 17.8337 37.1667 20.9118 37.1667 24.7087ZM35.3333 24.7087C35.3333 21.9243 33.0761 19.6671 30.2917 19.6671C27.5072 19.6671 25.25 21.9243 25.25 24.7087C25.25 27.4932 27.5072 29.7504 30.2917 29.7504C33.0761 29.7504 35.3333 27.4932 35.3333 24.7087Z" fill="#C4C8D4"/>
</svg>
