<svg width="56" height="54" viewBox="0 0 56 54" fill="none" xmlns="http://www.w3.org/2000/svg">
<path fill-rule="evenodd" clip-rule="evenodd" d="M37.1667 24.7084C37.1667 28.5053 34.0886 31.5834 30.2917 31.5834C28.7043 31.5834 27.2426 31.0454 26.079 30.1419C26.0351 30.2346 25.9749 30.3215 25.8982 30.3982L20.3982 35.8982C20.0402 36.2562 19.4598 36.2562 19.1018 35.8982C18.7438 35.5403 18.7438 34.9599 19.1018 34.6019L24.6018 29.1019C24.6785 29.0252 24.7654 28.9649 24.8581 28.9211C23.9546 27.7574 23.4167 26.2957 23.4167 24.7084C23.4167 20.9114 26.4947 17.8334 30.2917 17.8334C34.0886 17.8334 37.1667 20.9114 37.1667 24.7084ZM35.3333 24.7084C35.3333 21.924 33.0761 19.6667 30.2917 19.6667C27.5072 19.6667 25.25 21.924 25.25 24.7084C25.25 27.4928 27.5072 29.7501 30.2917 29.7501C33.0761 29.7501 35.3333 27.4928 35.3333 24.7084Z" fill="#C4C8D4"/>
</svg>
