<svg width="56" height="54" viewBox="0 0 56 54" fill="none" xmlns="http://www.w3.org/2000/svg">
<path fill-rule="evenodd" clip-rule="evenodd" d="M37.1667 24.709C37.1667 28.5059 34.0886 31.584 30.2917 31.584C28.7043 31.584 27.2426 31.046 26.079 30.1425C26.0351 30.2352 25.9749 30.3221 25.8982 30.3988L20.3982 35.8988C20.0402 36.2568 19.4598 36.2568 19.1018 35.8988C18.7438 35.5409 18.7438 34.9605 19.1018 34.6025L24.6018 29.1025C24.6785 29.0258 24.7654 28.9655 24.8581 28.9217C23.9546 27.758 23.4167 26.2963 23.4167 24.709C23.4167 20.912 26.4947 17.834 30.2917 17.834C34.0886 17.834 37.1667 20.912 37.1667 24.709ZM35.3333 24.709C35.3333 21.9245 33.0761 19.6673 30.2917 19.6673C27.5072 19.6673 25.25 21.9245 25.25 24.709C25.25 27.4934 27.5072 29.7507 30.2917 29.7507C33.0761 29.7507 35.3333 27.4934 35.3333 24.709Z" fill="#C4C8D4"/>
</svg>
