<svg width="48" height="48" viewBox="0 0 48 48" fill="none" xmlns="http://www.w3.org/2000/svg">
<path fill-rule="evenodd" clip-rule="evenodd" d="M33.1667 21.7087C33.1667 25.5057 30.0886 28.5837 26.2917 28.5837C24.7043 28.5837 23.2427 28.0458 22.079 27.1423C22.0351 27.235 21.9749 27.3219 21.8982 27.3986L16.3982 32.8986C16.0402 33.2566 15.4598 33.2566 15.1018 32.8986C14.7438 32.5406 14.7438 31.9602 15.1018 31.6022L20.6018 26.1022C20.6785 26.0255 20.7654 25.9653 20.8582 25.9214C19.9546 24.7578 19.4167 23.2961 19.4167 21.7087C19.4167 17.9118 22.4947 14.8337 26.2917 14.8337C30.0886 14.8337 33.1667 17.9118 33.1667 21.7087ZM31.3333 21.7087C31.3333 18.9243 29.0761 16.6671 26.2917 16.6671C23.5072 16.6671 21.25 18.9243 21.25 21.7087C21.25 24.4932 23.5072 26.7504 26.2917 26.7504C29.0761 26.7504 31.3333 24.4932 31.3333 21.7087Z" fill="#3B72FF"/>
</svg>
