<svg width="22" height="22" viewBox="0 0 22 22" fill="none" xmlns="http://www.w3.org/2000/svg">
<path fill-rule="evenodd" clip-rule="evenodd" d="M20.1666 11.0001C20.1666 16.0627 16.0626 20.1667 11 20.1667C5.93735 20.1667 1.83329 16.0627 1.83329 11.0001C1.83329 5.93745 5.93735 1.8334 11 1.8334C16.0626 1.8334 20.1666 5.93745 20.1666 11.0001ZM15.4968 5.20685C14.255 4.24155 12.6946 3.66673 11 3.66673C6.94987 3.66673 3.66663 6.94998 3.66663 11.0001C3.66663 12.6947 4.24145 14.2551 5.20676 15.4969L15.4968 5.20685ZM16.7932 6.50321C17.7585 7.74501 18.3333 9.30541 18.3333 11.0001C18.3333 15.0502 15.05 18.3334 11 18.3334C9.30531 18.3334 7.74491 17.7586 6.50312 16.7933L16.7932 6.50321Z" fill="#C4C8D4"/>
</svg>
