<svg width="22" height="22" viewBox="0 0 22 22" fill="none" xmlns="http://www.w3.org/2000/svg">
<path fill-rule="evenodd" clip-rule="evenodd" d="M14.9048 4.58398L14.6667 4.58398C14.6667 3.0652 13.4355 1.83398 11.9167 1.83398H10.0833C8.56455 1.83398 7.33333 3.0652 7.33333 4.58399L6.73134 4.58398L6.41667 4.58398L6.41558 4.58398L3.66667 4.58398C3.16041 4.58398 2.75 4.99439 2.75 5.50065C2.75 6.00691 3.16041 6.41732 3.66667 6.41732L4.58333 6.41732L4.58333 17.4173C4.58333 18.9361 5.81455 20.1673 7.33333 20.1673H14.6667C16.1855 20.1673 17.4167 18.9361 17.4167 17.4173L17.4167 6.41732L18.3333 6.41732C18.8396 6.41732 19.25 6.00691 19.25 5.50065C19.25 4.99439 18.8396 4.58398 18.3333 4.58398L15.585 4.58398L15.5833 4.58398L14.9048 4.58398ZM15.5833 6.41732H13.75L12.8333 6.41732L9.16667 6.41732L8.25 6.41732L6.41667 6.41732L6.41667 8.25065L6.41667 17.4173C6.41667 17.9236 6.82707 18.334 7.33333 18.334H14.6667C15.1729 18.334 15.5833 17.9236 15.5833 17.4173L15.5833 8.25065V6.41732ZM9.16667 4.58399H10.0833H11L11.9167 4.58398H12.8333C12.8333 4.07772 12.4229 3.66732 11.9167 3.66732L10.0833 3.66732C9.57707 3.66732 9.16667 4.07772 9.16667 4.58399ZM9.16667 8.25065C9.67293 8.25065 10.0833 8.66106 10.0833 9.16732V15.584C10.0833 16.0902 9.67293 16.5007 9.16667 16.5007C8.66041 16.5007 8.25 16.0902 8.25 15.584V9.16732C8.25 8.66106 8.66041 8.25065 9.16667 8.25065ZM13.75 9.16732C13.75 8.66106 13.3396 8.25065 12.8333 8.25065C12.3271 8.25065 11.9167 8.66106 11.9167 9.16732V15.584C11.9167 16.0902 12.3271 16.5007 12.8333 16.5007C13.3396 16.5007 13.75 16.0902 13.75 15.584V9.16732Z" fill="#C4C8D4"/>
</svg>
