<svg width="22" height="22" viewBox="0 0 22 22" fill="none" xmlns="http://www.w3.org/2000/svg">
<path fill-rule="evenodd" clip-rule="evenodd" d="M20.1667 11.0007C20.1667 16.0633 16.0626 20.1673 11 20.1673C5.93741 20.1673 1.83335 16.0633 1.83335 11.0007C1.83335 5.93804 5.93741 1.83398 11 1.83398C16.0626 1.83398 20.1667 5.93804 20.1667 11.0007ZM15.4968 5.20744C14.2551 4.24214 12.6947 3.66732 11 3.66732C6.94993 3.66732 3.66669 6.95056 3.66669 11.0007C3.66669 12.6953 4.24151 14.2557 5.20682 15.4975L15.4968 5.20744ZM16.7932 6.5038C17.7585 7.74559 18.3334 9.30599 18.3334 11.0007C18.3334 15.0507 15.0501 18.334 11 18.334C9.30537 18.334 7.74498 17.7592 6.50318 16.7939L16.7932 6.5038Z" fill="#C4C8D4"/>
</svg>
