<svg width="22" height="22" viewBox="0 0 22 22" fill="none" xmlns="http://www.w3.org/2000/svg">
<path fill-rule="evenodd" clip-rule="evenodd" d="M14.9048 4.5834L14.6667 4.5834C14.6667 3.06461 13.4355 1.8334 11.9167 1.8334H10.0833C8.56455 1.8334 7.33333 3.06462 7.33333 4.5834L6.73134 4.5834L6.41667 4.5834L6.41558 4.5834L3.66667 4.5834C3.16041 4.5834 2.75 4.9938 2.75 5.50006C2.75 6.00633 3.16041 6.41673 3.66667 6.41673L4.58333 6.41673L4.58333 17.4167C4.58333 18.9355 5.81455 20.1667 7.33333 20.1667H14.6667C16.1855 20.1667 17.4167 18.9355 17.4167 17.4167L17.4167 6.41673L18.3333 6.41673C18.8396 6.41673 19.25 6.00632 19.25 5.50006C19.25 4.9938 18.8396 4.5834 18.3333 4.5834L15.585 4.5834L15.5833 4.5834L14.9048 4.5834ZM15.5833 6.41673H13.75L12.8333 6.41673L9.16667 6.41673L8.25 6.41673L6.41667 6.41673L6.41667 8.25006L6.41667 17.4167C6.41667 17.923 6.82707 18.3334 7.33333 18.3334H14.6667C15.1729 18.3334 15.5833 17.923 15.5833 17.4167L15.5833 8.25006V6.41673ZM9.16667 4.5834H10.0833H11L11.9167 4.5834H12.8333C12.8333 4.07714 12.4229 3.66673 11.9167 3.66673L10.0833 3.66673C9.57707 3.66673 9.16667 4.07714 9.16667 4.5834ZM9.16667 8.25006C9.67293 8.25006 10.0833 8.66047 10.0833 9.16673V15.5834C10.0833 16.0897 9.67293 16.5001 9.16667 16.5001C8.66041 16.5001 8.25 16.0897 8.25 15.5834V9.16673C8.25 8.66047 8.66041 8.25006 9.16667 8.25006ZM13.75 9.16673C13.75 8.66047 13.3396 8.25006 12.8333 8.25006C12.3271 8.25006 11.9167 8.66047 11.9167 9.16673V15.5834C11.9167 16.0897 12.3271 16.5001 12.8333 16.5001C13.3396 16.5001 13.75 16.0897 13.75 15.5834V9.16673Z" fill="#C4C8D4"/>
</svg>
