<svg width="22" height="22" viewBox="0 0 22 22" fill="none" xmlns="http://www.w3.org/2000/svg">
<path fill-rule="evenodd" clip-rule="evenodd" d="M1.83334 11.0007C1.83334 16.0633 5.9374 20.1673 11 20.1673C16.0626 20.1673 20.1667 16.0633 20.1667 11.0007C20.1667 5.93804 16.0626 1.83398 11 1.83398C5.9374 1.83398 1.83334 5.93804 1.83334 11.0007ZM3.66668 11.0007C3.66668 6.95056 6.94992 3.66732 11 3.66732C15.0501 3.66732 18.3333 6.95056 18.3333 11.0007C18.3333 15.0507 15.0501 18.334 11 18.334C6.94992 18.334 3.66668 15.0507 3.66668 11.0007ZM10.9999 5.27148C10.3746 5.27148 9.87487 5.79162 9.89986 6.4164L10.1062 11.5743C10.1254 12.0539 10.5198 12.4329 10.9999 12.4329C11.48 12.4329 11.8744 12.0539 11.8936 11.5743L12.0999 6.4164C12.1249 5.79162 11.6252 5.27148 10.9999 5.27148ZM9.6823 15.1543C9.6823 14.4424 10.2594 13.8652 10.9714 13.8652C11.6833 13.8652 12.2604 14.4424 12.2604 15.1543C12.2604 15.8662 11.6833 16.4434 10.9714 16.4434C10.2594 16.4434 9.6823 15.8662 9.6823 15.1543Z" fill="#C4C8D4"/>
</svg>
