<svg width="22" height="22" viewBox="0 0 22 22" fill="none" xmlns="http://www.w3.org/2000/svg">
<path fill-rule="evenodd" clip-rule="evenodd" d="M1.83334 11C1.83334 16.0626 5.9374 20.1667 11 20.1667C16.0626 20.1667 20.1667 16.0626 20.1667 11C20.1667 5.93739 16.0626 1.83333 11 1.83333C5.9374 1.83333 1.83334 5.93739 1.83334 11ZM3.66667 11C3.66667 6.94991 6.94992 3.66666 11 3.66666C15.0501 3.66666 18.3333 6.94991 18.3333 11C18.3333 15.0501 15.0501 18.3333 11 18.3333C6.94992 18.3333 3.66667 15.0501 3.66667 11ZM10.9999 5.27083C10.3746 5.27083 9.87487 5.79096 9.89986 6.41574L10.1062 11.5736C10.1254 12.0533 10.5198 12.4323 10.9999 12.4323C11.48 12.4323 11.8744 12.0533 11.8936 11.5736L12.0999 6.41575C12.1249 5.79097 11.6252 5.27083 10.9999 5.27083ZM9.6823 15.1536C9.6823 14.4417 10.2594 13.8646 10.9714 13.8646C11.6833 13.8646 12.2604 14.4417 12.2604 15.1536C12.2604 15.8656 11.6833 16.4427 10.9714 16.4427C10.2594 16.4427 9.6823 15.8656 9.6823 15.1536Z" fill="#C4C8D4"/>
</svg>
