<svg width="22" height="22" viewBox="0 0 22 22" fill="none" xmlns="http://www.w3.org/2000/svg">
<path fill-rule="evenodd" clip-rule="evenodd" d="M1.83334 11.0004C1.83334 16.063 5.9374 20.1671 11 20.1671C16.0626 20.1671 20.1667 16.063 20.1667 11.0004C20.1667 5.9378 16.0626 1.83374 11 1.83374C5.9374 1.83374 1.83334 5.9378 1.83334 11.0004ZM3.66668 11.0004C3.66668 6.95032 6.94992 3.66707 11 3.66707C15.0501 3.66707 18.3333 6.95032 18.3333 11.0004C18.3333 15.0505 15.0501 18.3337 11 18.3337C6.94992 18.3337 3.66668 15.0505 3.66668 11.0004ZM10.9999 5.27124C10.3746 5.27124 9.87487 5.79138 9.89986 6.41616L10.1062 11.574C10.1254 12.0537 10.5198 12.4327 10.9999 12.4327C11.48 12.4327 11.8744 12.0537 11.8936 11.574L12.0999 6.41616C12.1249 5.79138 11.6252 5.27124 10.9999 5.27124ZM9.6823 15.1541C9.6823 14.4421 10.2594 13.865 10.9714 13.865C11.6833 13.865 12.2604 14.4421 12.2604 15.1541C12.2604 15.866 11.6833 16.4431 10.9714 16.4431C10.2594 16.4431 9.6823 15.866 9.6823 15.1541Z" fill="#C4C8D4"/>
</svg>
