<svg width="22" height="22" viewBox="0 0 22 22" fill="none" xmlns="http://www.w3.org/2000/svg">
<path fill-rule="evenodd" clip-rule="evenodd" d="M20.1667 11C20.1667 16.0626 16.0626 20.1667 11 20.1667C5.93738 20.1667 1.83333 16.0626 1.83333 11C1.83333 5.93739 5.93738 1.83333 11 1.83333C16.0626 1.83333 20.1667 5.93739 20.1667 11ZM15.4968 5.20678C14.255 4.24148 12.6946 3.66666 11 3.66666C6.94991 3.66666 3.66666 6.94991 3.66666 11C3.66666 12.6946 4.24149 14.255 5.20679 15.4968L15.4968 5.20678ZM16.7932 6.50314C17.7585 7.74494 18.3333 9.30534 18.3333 11C18.3333 15.0501 15.0501 18.3333 11 18.3333C9.30534 18.3333 7.74495 17.7585 6.50316 16.7932L16.7932 6.50314Z" fill="#C4C8D4"/>
</svg>
