<svg width="22" height="22" viewBox="0 0 22 22" fill="none" xmlns="http://www.w3.org/2000/svg">
<path fill-rule="evenodd" clip-rule="evenodd" d="M14.9048 4.5835L14.6667 4.5835C14.6667 3.06471 13.4355 1.8335 11.9167 1.8335H10.0833C8.56455 1.8335 7.33333 3.06471 7.33333 4.5835L6.73134 4.5835L6.41667 4.5835L6.41558 4.5835L3.66667 4.5835C3.16041 4.5835 2.75 4.9939 2.75 5.50016C2.75 6.00642 3.16041 6.41683 3.66667 6.41683L4.58333 6.41683L4.58333 17.4168C4.58333 18.9356 5.81455 20.1668 7.33333 20.1668H14.6667C16.1855 20.1668 17.4167 18.9356 17.4167 17.4168L17.4167 6.41683L18.3333 6.41683C18.8396 6.41683 19.25 6.00642 19.25 5.50016C19.25 4.9939 18.8396 4.5835 18.3333 4.5835L15.585 4.5835L15.5833 4.5835L14.9048 4.5835ZM15.5833 6.41683H13.75L12.8333 6.41683L9.16667 6.41683L8.25 6.41683L6.41667 6.41683L6.41667 8.25016L6.41667 17.4168C6.41667 17.9231 6.82707 18.3335 7.33333 18.3335H14.6667C15.1729 18.3335 15.5833 17.9231 15.5833 17.4168L15.5833 8.25016V6.41683ZM9.16667 4.5835H10.0833H11L11.9167 4.5835H12.8333C12.8333 4.07724 12.4229 3.66683 11.9167 3.66683L10.0833 3.66683C9.57707 3.66683 9.16667 4.07724 9.16667 4.5835ZM9.16667 8.25016C9.67293 8.25016 10.0833 8.66057 10.0833 9.16683V15.5835C10.0833 16.0898 9.67293 16.5002 9.16667 16.5002C8.66041 16.5002 8.25 16.0898 8.25 15.5835V9.16683C8.25 8.66057 8.66041 8.25016 9.16667 8.25016ZM13.75 9.16683C13.75 8.66057 13.3396 8.25016 12.8333 8.25016C12.3271 8.25016 11.9167 8.66057 11.9167 9.16683V15.5835C11.9167 16.0898 12.3271 16.5002 12.8333 16.5002C13.3396 16.5002 13.75 16.0898 13.75 15.5835V9.16683Z" fill="#C4C8D4"/>
</svg>
