<svg width="22" height="22" viewBox="0 0 22 22" fill="none" xmlns="http://www.w3.org/2000/svg">
<path fill-rule="evenodd" clip-rule="evenodd" d="M20.1667 11.0004C20.1667 16.063 16.0626 20.1671 11 20.1671C5.93738 20.1671 1.83332 16.063 1.83332 11.0004C1.83332 5.9378 5.93738 1.83374 11 1.83374C16.0626 1.83374 20.1667 5.9378 20.1667 11.0004ZM15.4968 5.20719C14.255 4.24189 12.6946 3.66707 11 3.66707C6.9499 3.66707 3.66666 6.95032 3.66666 11.0004C3.66666 12.6951 4.24148 14.2555 5.20679 15.4973L15.4968 5.20719ZM16.7932 6.50355C17.7585 7.74535 18.3333 9.30575 18.3333 11.0004C18.3333 15.0505 15.0501 18.3337 11 18.3337C9.30534 18.3337 7.74494 17.7589 6.50315 16.7936L16.7932 6.50355Z" fill="#C4C8D4"/>
</svg>
