<svg width="22" height="22" viewBox="0 0 22 22" fill="none" xmlns="http://www.w3.org/2000/svg">
<path fill-rule="evenodd" clip-rule="evenodd" d="M14.9048 4.58386L14.6667 4.58386C14.6667 3.06508 13.4355 1.83386 11.9167 1.83386H10.0833C8.56455 1.83386 7.33333 3.06508 7.33333 4.58386L6.73134 4.58386L6.41667 4.58386L6.41558 4.58386L3.66667 4.58386C3.16041 4.58386 2.75 4.99427 2.75 5.50053C2.75 6.00679 3.16041 6.4172 3.66667 6.4172L4.58333 6.4172L4.58333 17.4172C4.58333 18.936 5.81455 20.1672 7.33333 20.1672H14.6667C16.1855 20.1672 17.4167 18.936 17.4167 17.4172L17.4167 6.41719L18.3333 6.4172C18.8396 6.4172 19.25 6.00679 19.25 5.50053C19.25 4.99427 18.8396 4.58386 18.3333 4.58386L15.585 4.58386L15.5833 4.58386L14.9048 4.58386ZM15.5833 6.41719H13.75L12.8333 6.4172L9.16667 6.4172L8.25 6.4172L6.41667 6.4172L6.41667 8.25053L6.41667 17.4172C6.41667 17.9235 6.82707 18.3339 7.33333 18.3339H14.6667C15.1729 18.3339 15.5833 17.9235 15.5833 17.4172L15.5833 8.25053V6.41719ZM9.16667 4.58386H10.0833H11L11.9167 4.58386H12.8333C12.8333 4.0776 12.4229 3.6672 11.9167 3.6672L10.0833 3.6672C9.57707 3.6672 9.16667 4.0776 9.16667 4.58386ZM9.16667 8.25053C9.67293 8.25053 10.0833 8.66093 10.0833 9.1672V15.5839C10.0833 16.0901 9.67293 16.5005 9.16667 16.5005C8.66041 16.5005 8.25 16.0901 8.25 15.5839V9.1672C8.25 8.66093 8.66041 8.25053 9.16667 8.25053ZM13.75 9.1672C13.75 8.66093 13.3396 8.25053 12.8333 8.25053C12.3271 8.25053 11.9167 8.66093 11.9167 9.1672V15.5839C11.9167 16.0901 12.3271 16.5005 12.8333 16.5005C13.3396 16.5005 13.75 16.0901 13.75 15.5839V9.1672Z" fill="#3B72FF"/>
</svg>
