<svg width="22" height="22" viewBox="0 0 22 22" fill="none" xmlns="http://www.w3.org/2000/svg">
<path fill-rule="evenodd" clip-rule="evenodd" d="M1.83337 11.0001C1.83337 16.0627 5.93743 20.1667 11 20.1667C16.0626 20.1667 20.1667 16.0627 20.1667 11.0001C20.1667 5.93745 16.0626 1.8334 11 1.8334C5.93743 1.8334 1.83337 5.93745 1.83337 11.0001ZM3.66671 11.0001C3.66671 6.94998 6.94995 3.66673 11 3.66673C15.0501 3.66673 18.3334 6.94998 18.3334 11.0001C18.3334 15.0502 15.0501 18.3334 11 18.3334C6.94995 18.3334 3.66671 15.0502 3.66671 11.0001ZM10.9999 5.2709C10.3746 5.2709 9.8749 5.79103 9.89989 6.41581L10.1062 11.5737C10.1254 12.0534 10.5199 12.4324 10.9999 12.4324C11.48 12.4324 11.8745 12.0534 11.8937 11.5737L12.1 6.41581C12.125 5.79104 11.6252 5.2709 10.9999 5.2709ZM9.68233 15.1537C9.68233 14.4418 10.2595 13.8646 10.9714 13.8646C11.6833 13.8646 12.2605 14.4418 12.2605 15.1537C12.2605 15.8656 11.6833 16.4428 10.9714 16.4428C10.2595 16.4428 9.68233 15.8656 9.68233 15.1537Z" fill="#C4C8D4"/>
</svg>
