<svg width="22" height="22" viewBox="0 0 22 22" fill="none" xmlns="http://www.w3.org/2000/svg">
<path fill-rule="evenodd" clip-rule="evenodd" d="M14.9048 4.58333L14.6667 4.58333C14.6667 3.06455 13.4355 1.83333 11.9167 1.83333H10.0833C8.56455 1.83333 7.33333 3.06455 7.33333 4.58333L6.73134 4.58333L6.41667 4.58333L6.41558 4.58333L3.66667 4.58333C3.16041 4.58333 2.75 4.99374 2.75 5.5C2.75 6.00626 3.16041 6.41667 3.66667 6.41667L4.58333 6.41667L4.58333 17.4167C4.58333 18.9355 5.81455 20.1667 7.33333 20.1667H14.6667C16.1855 20.1667 17.4167 18.9355 17.4167 17.4167L17.4167 6.41667L18.3333 6.41667C18.8396 6.41667 19.25 6.00626 19.25 5.5C19.25 4.99374 18.8396 4.58333 18.3333 4.58333L15.585 4.58333L15.5833 4.58333L14.9048 4.58333ZM15.5833 6.41667H13.75L12.8333 6.41667L9.16667 6.41667L8.25 6.41667L6.41667 6.41667L6.41667 8.25L6.41667 17.4167C6.41667 17.9229 6.82707 18.3333 7.33333 18.3333H14.6667C15.1729 18.3333 15.5833 17.9229 15.5833 17.4167L15.5833 8.25V6.41667ZM9.16667 4.58333H10.0833H11L11.9167 4.58333H12.8333C12.8333 4.07707 12.4229 3.66667 11.9167 3.66667L10.0833 3.66667C9.57707 3.66667 9.16667 4.07707 9.16667 4.58333ZM9.16667 8.25C9.67293 8.25 10.0833 8.66041 10.0833 9.16667V15.5833C10.0833 16.0896 9.67293 16.5 9.16667 16.5C8.66041 16.5 8.25 16.0896 8.25 15.5833V9.16667C8.25 8.66041 8.66041 8.25 9.16667 8.25ZM13.75 9.16667C13.75 8.66041 13.3396 8.25 12.8333 8.25C12.3271 8.25 11.9167 8.66041 11.9167 9.16667V15.5833C11.9167 16.0896 12.3271 16.5 12.8333 16.5C13.3396 16.5 13.75 16.0896 13.75 15.5833V9.16667Z" fill="#3B72FF"/>
</svg>
