<svg width="22" height="22" viewBox="0 0 22 22" fill="none" xmlns="http://www.w3.org/2000/svg">
<path fill-rule="evenodd" clip-rule="evenodd" d="M14.9048 4.58374L14.6667 4.58374C14.6667 3.06496 13.4355 1.83374 11.9167 1.83374H10.0833C8.56455 1.83374 7.33333 3.06496 7.33333 4.58374L6.73134 4.58374L6.41667 4.58374L6.41558 4.58374L3.66667 4.58374C3.16041 4.58374 2.75 4.99415 2.75 5.50041C2.75 6.00667 3.16041 6.41707 3.66667 6.41707L4.58333 6.41707L4.58333 17.4171C4.58333 18.9359 5.81455 20.1671 7.33333 20.1671H14.6667C16.1855 20.1671 17.4167 18.9359 17.4167 17.4171L17.4167 6.41707L18.3333 6.41707C18.8396 6.41707 19.25 6.00667 19.25 5.50041C19.25 4.99415 18.8396 4.58374 18.3333 4.58374L15.585 4.58374L15.5833 4.58374L14.9048 4.58374ZM15.5833 6.41707H13.75L12.8333 6.41707L9.16667 6.41707L8.25 6.41707L6.41667 6.41707L6.41667 8.25041L6.41667 17.4171C6.41667 17.9233 6.82707 18.3337 7.33333 18.3337H14.6667C15.1729 18.3337 15.5833 17.9233 15.5833 17.4171L15.5833 8.25041V6.41707ZM9.16667 4.58374H10.0833H11L11.9167 4.58374H12.8333C12.8333 4.07748 12.4229 3.66707 11.9167 3.66707L10.0833 3.66707C9.57707 3.66707 9.16667 4.07748 9.16667 4.58374ZM9.16667 8.25041C9.67293 8.25041 10.0833 8.66081 10.0833 9.16707V15.5837C10.0833 16.09 9.67293 16.5004 9.16667 16.5004C8.66041 16.5004 8.25 16.09 8.25 15.5837V9.16707C8.25 8.66081 8.66041 8.25041 9.16667 8.25041ZM13.75 9.16707C13.75 8.66081 13.3396 8.25041 12.8333 8.25041C12.3271 8.25041 11.9167 8.66081 11.9167 9.16707V15.5837C11.9167 16.09 12.3271 16.5004 12.8333 16.5004C13.3396 16.5004 13.75 16.09 13.75 15.5837V9.16707Z" fill="#C4C8D4"/>
</svg>
