<svg width="26" height="29" viewBox="0 0 26 29" fill="none" xmlns="http://www.w3.org/2000/svg">
<path d="M12.6704 0C10.1644 0 7.71474 0.843112 5.6311 2.42272C3.54747 4.00233 1.92347 6.24748 0.964482 8.87427C0.00548984 11.5011 -0.245426 14.3915 0.243464 17.1801C0.732353 19.9687 1.93909 22.5302 3.71108 24.5406C5.48306 26.5511 7.74071 27.9202 10.1985 28.4749C12.6563 29.0296 15.2039 28.7449 17.5191 27.6569C19.8344 26.5688 21.8132 24.7262 23.2054 22.3622C24.5977 19.9982 25.3408 17.2188 25.3408 14.3756C25.3408 10.5629 24.0059 6.90645 21.6297 4.21051C19.2536 1.51456 16.0308 0 12.6704 0ZM20.9457 9.55077L10.5402 21.3477L4.39505 14.3756C4.18502 14.1373 4.06703 13.8141 4.06703 13.4771C4.06703 13.1401 4.18502 12.8169 4.39505 12.5786C4.60507 12.3403 4.88993 12.2065 5.18695 12.2065C5.48397 12.2065 5.76882 12.3403 5.97885 12.5786L10.556 17.7718L19.3778 7.77179C19.4818 7.6538 19.6052 7.56021 19.7411 7.49635C19.877 7.4325 20.0226 7.39963 20.1697 7.39963C20.3167 7.39963 20.4624 7.4325 20.5983 7.49635C20.7341 7.56021 20.8576 7.6538 20.9616 7.77179C21.0656 7.88978 21.1481 8.02985 21.2043 8.18401C21.2606 8.33817 21.2896 8.5034 21.2896 8.67026C21.2896 8.83712 21.2606 9.00235 21.2043 9.15651C21.1481 9.31067 21.0656 9.45075 20.9616 9.56874L20.9457 9.55077Z" fill="#69B010"/>
</svg>
