<svg width="27" height="14" viewBox="0 0 27 14" fill="none" xmlns="http://www.w3.org/2000/svg">
<path d="M13.3251 10.5652C10.2141 10.5652 7.69571 9.01449 7.46397 7.04938L3.16143 4.90809C2.59583 5.36503 2.07534 5.84812 1.65534 6.37638C1.56151 6.4959 1.51263 6.62795 1.51263 6.76187C1.51263 6.8958 1.56151 7.02785 1.65534 7.14737C3.87962 9.9421 8.28306 11.833 13.3251 11.833C14.4288 11.833 15.4936 11.7273 16.5198 11.5567L14.3915 10.4962C14.04 10.54 13.6831 10.563 13.3251 10.5652ZM26.1966 12.0998L21.6624 9.84305C23.0397 9.09555 24.1725 8.17913 24.9949 7.1471C25.0887 7.02758 25.1376 6.89553 25.1376 6.76161C25.1376 6.62768 25.0887 6.49563 24.9949 6.37611C22.7706 3.58138 18.3672 1.69049 13.3251 1.69049C11.2134 1.69213 9.13602 2.03448 7.28268 2.68625L2.06468 0.0890804C1.99663 0.0549835 1.91882 0.0298551 1.83569 0.0151312C1.75256 0.00040736 1.66574 -0.00362344 1.58019 0.00326917C1.49464 0.0101618 1.41204 0.0278427 1.3371 0.0553016C1.26217 0.0827605 1.19637 0.119459 1.14347 0.1633L0.338329 0.830751C0.231524 0.91923 0.183665 1.0314 0.205279 1.1426C0.226892 1.2538 0.316209 1.35492 0.453583 1.42372L24.5855 13.4344C24.6536 13.4685 24.7314 13.4936 24.8145 13.5083C24.8977 13.5231 24.9845 13.5271 25.07 13.5202C25.1556 13.5133 25.2382 13.4956 25.3131 13.4682C25.388 13.4407 25.4538 13.404 25.5067 13.3602L26.3123 12.6927C26.4191 12.6042 26.4668 12.492 26.4452 12.3808C26.4235 12.2696 26.3341 12.1685 26.1966 12.0998ZM18.6612 8.34915L17.0493 7.54673C17.1851 7.29408 17.2571 7.02906 17.2626 6.76174C17.2706 6.37037 17.136 5.98325 16.8695 5.63147C16.603 5.27969 16.2122 4.97306 15.7283 4.7362C15.2444 4.49935 14.681 4.33887 14.0834 4.26767C13.4857 4.19647 12.8704 4.21652 12.287 4.32622C12.5343 4.54204 12.6681 4.8031 12.6689 5.07132C12.6627 5.16058 12.6416 5.24914 12.6057 5.33545L9.58653 3.83283C10.6353 3.26844 11.9584 2.95895 13.3251 2.9583C14.1008 2.95802 14.8691 3.05621 15.5858 3.24725C16.3026 3.4383 16.9539 3.71845 17.5024 4.07168C18.0509 4.42492 18.486 4.84432 18.7826 5.3059C19.0793 5.76748 19.2318 6.26219 19.2314 6.76174C19.2314 7.33305 19.0144 7.86553 18.6612 8.34941V8.34915Z" fill="black"/>
</svg>
