<svg width="47" height="54" viewBox="0 0 47 54" fill="none" xmlns="http://www.w3.org/2000/svg">
<path d="M40.5941 6.67473H30.9289C30.9289 2.9932 27.4615 0 23.1967 0C18.9319 0 15.4644 2.9932 15.4644 6.67473H5.79916C2.59754 6.67473 0 8.91703 0 11.6808V48.3918C0 51.1556 2.59754 53.3979 5.79916 53.3979H40.5941C43.7958 53.3979 46.3933 51.1556 46.3933 48.3918V11.6808C46.3933 8.91703 43.7958 6.67473 40.5941 6.67473ZM23.1967 4.17171C24.8035 4.17171 26.0962 5.28764 26.0962 6.67473C26.0962 8.06183 24.8035 9.17776 23.1967 9.17776C21.5898 9.17776 20.2971 8.06183 20.2971 6.67473C20.2971 5.28764 21.5898 4.17171 23.1967 4.17171ZM34.795 35.8767C34.795 36.3356 34.36 36.711 33.8285 36.711H27.0628V42.5514C27.0628 43.0103 26.6278 43.3858 26.0962 43.3858H20.2971C19.7655 43.3858 19.3305 43.0103 19.3305 42.5514V36.711H12.5649C12.0333 36.711 11.5983 36.3356 11.5983 35.8767V30.8706C11.5983 30.4118 12.0333 30.0363 12.5649 30.0363H19.3305V24.1959C19.3305 23.737 19.7655 23.3616 20.2971 23.3616H26.0962C26.6278 23.3616 27.0628 23.737 27.0628 24.1959V30.0363H33.8285C34.36 30.0363 34.795 30.4118 34.795 30.8706V35.8767ZM34.795 15.8525C34.795 16.3114 34.36 16.6868 33.8285 16.6868H12.5649C12.0333 16.6868 11.5983 16.3114 11.5983 15.8525V14.1838C11.5983 13.7249 12.0333 13.3495 12.5649 13.3495H33.8285C34.36 13.3495 34.795 13.7249 34.795 14.1838V15.8525Z" fill="black"/>
</svg>
