<svg width="842" height="789" viewBox="0 0 842 789" fill="none" xmlns="http://www.w3.org/2000/svg">
<path fill-rule="evenodd" clip-rule="evenodd" d="M569.102 -122.184C675.5 -136.024 771.428 -67.8646 855.482 -16.1923C931.645 30.6297 991.322 90.9385 1028.22 160.061C1062.34 223.979 1057.07 293.335 1057.54 362.352C1058.01 431.704 1074.53 504.987 1030.98 565.859C987.158 627.116 897.481 656.936 820.149 694.192C739.932 732.838 663.662 782.596 569.102 788.375C472.045 794.307 382.52 756.832 293.713 726.366C196.612 693.054 76.2268 673.298 25.4768 601.877C-25.2835 530.441 11.5704 441.614 35.0553 362.352C55.0835 294.756 97.2758 234.003 151.026 178.144C200.588 126.637 273.065 95.4373 334.037 51.6376C414.858 -6.42123 459.685 -107.951 569.102 -122.184Z" fill="#DCF0DF"/>
</svg>
