<svg width="28" height="27" viewBox="0 0 28 27" fill="none" xmlns="http://www.w3.org/2000/svg">
<path d="M0.859577 11.8426L10.1049 0.570617C10.9304 -0.435812 12.2752 0.288315 12.2246 1.74242L11.9986 8.23518L19.1626 8.30831C19.8632 8.31547 20.4017 9.04489 20.3704 9.94441L20.1443 16.4372C20.113 17.3367 19.5242 18.0546 18.8236 18.0475L11.6595 17.9743L11.4334 24.4671C11.3831 25.9144 9.99376 26.6174 9.23366 25.5948L0.779518 14.1421C0.311756 13.5014 0.347547 12.4734 0.859577 11.8426ZM17.3099 0.982449L17.2157 3.68777C17.2001 4.13414 17.4719 4.50226 17.8195 4.50581L22.2444 4.55098C23.1768 4.5605 23.8964 5.53534 23.8547 6.73244L23.4026 19.718C23.3609 20.9151 22.574 21.8745 21.6416 21.865L17.2167 21.8198C16.8691 21.8163 16.5719 22.1786 16.5564 22.625L16.4622 25.3303C16.4466 25.7767 16.7184 26.1448 17.066 26.1484L21.4909 26.1935C24.2828 26.222 26.6492 23.3369 26.774 19.7524L27.226 6.76686C27.3508 3.18231 25.187 0.250972 22.3951 0.222473L17.9702 0.177305C17.6226 0.173756 17.3254 0.536072 17.3099 0.982449Z" fill="black"/>
</svg>
