<svg width="1026" height="985" viewBox="0 0 1026 985" fill="none" xmlns="http://www.w3.org/2000/svg">
<path fill-rule="evenodd" clip-rule="evenodd" d="M569.102 0.961461C675.5 -13.9855 771.428 59.6238 855.482 115.428C931.645 165.993 991.322 231.124 1028.22 305.773C1062.34 374.802 1057.07 449.704 1057.54 524.238C1058.01 599.136 1074.53 678.278 1030.98 744.017C987.158 810.173 897.481 842.377 820.149 882.612C739.932 924.347 663.662 978.084 569.102 984.325C472.045 990.731 382.52 950.26 293.713 917.358C196.612 881.382 76.2268 860.047 25.4768 782.915C-25.2835 705.767 11.5704 609.838 35.0553 524.238C55.0835 451.238 97.2758 385.628 151.026 325.302C200.588 269.677 273.065 235.983 334.037 188.681C414.858 125.98 459.685 16.3325 569.102 0.961461Z" fill="#DCF0DF"/>
</svg>
