<svg width="46" height="54" viewBox="0 0 46 54" fill="none" xmlns="http://www.w3.org/2000/svg">
<path d="M28.0707 1.24943C26.4221 0.466188 24.6034 0 22.6695 0C17.2359 0 12.5998 3.45522 10.6759 8.34342H18.8926L28.0707 1.24943ZM34.663 8.34342C33.8635 6.31284 32.5711 4.56802 30.9701 3.17884L24.2877 8.34342H34.663ZM22.6695 26.6989C29.8235 26.6989 35.6234 20.7219 35.6234 13.3495C35.6234 12.7779 35.5273 12.2335 35.4605 11.6808H9.87842C9.81061 12.2335 9.71548 12.7779 9.71548 13.3495C9.71548 20.7219 15.5154 26.6989 22.6695 26.6989ZM8.09623 31.2565V53.3979H21.0765L11.1131 30.295C10.0743 30.4922 9.0617 30.815 8.09623 31.2565ZM0 48.3918C0 51.1566 2.17485 53.3979 4.85774 53.3979V33.3987C1.91071 35.9695 0 39.7626 0 44.0532V48.3918ZM25.9079 43.3858H20.3033L24.6217 53.3979H25.9079C28.5868 53.3979 30.7657 51.1525 30.7657 48.3918C30.7657 45.6312 28.5868 43.3858 25.9079 43.3858ZM31.7372 30.0363H30.0461C27.7954 31.098 25.3017 31.705 22.6695 31.705C20.0372 31.705 17.5435 31.098 15.2928 30.0363H14.5469L18.8652 40.0484H25.9079C30.372 40.0484 34.0042 43.7915 34.0042 48.3918C34.0042 50.2774 33.3707 51.9993 32.3434 53.3979H40.4812C43.1641 53.3979 45.3389 51.1566 45.3389 48.3918V44.0532C45.3389 36.3116 39.2495 30.0363 31.7372 30.0363Z" fill="black"/>
</svg>
