<svg width="24" height="29" viewBox="0 0 24 29" fill="none" xmlns="http://www.w3.org/2000/svg">
<path d="M14.3617 0.670424C13.5183 0.25015 12.5878 0 11.5983 0C8.81835 0 6.44639 1.85402 5.46209 4.47696H9.66596L14.3617 0.670424ZM17.7346 4.47696C17.3255 3.38738 16.6643 2.45113 15.8452 1.70572L12.4263 4.47696H17.7346ZM11.5983 14.3263C15.2585 14.3263 18.2259 11.1191 18.2259 7.16313C18.2259 6.85646 18.1768 6.56434 18.1426 6.26774H5.05407C5.01938 6.56434 4.97071 6.85646 4.97071 7.16313C4.97071 11.1191 7.93812 14.3263 11.5983 14.3263ZM4.14226 16.7718V28.6525H10.7833L5.68577 16.2558C5.1543 16.3617 4.63622 16.5349 4.14226 16.7718ZM0 25.9663C0 27.4499 1.11271 28.6525 2.48536 28.6525V17.9213C0.977573 19.3007 0 21.3361 0 23.6383V25.9663ZM13.2552 23.2802H10.3878L12.5971 28.6525H13.2552C14.6258 28.6525 15.7406 27.4477 15.7406 25.9663C15.7406 24.485 14.6258 23.2802 13.2552 23.2802ZM16.2377 16.117H15.3724C14.2209 16.6867 12.9451 17.0124 11.5983 17.0124C10.2516 17.0124 8.97576 16.6867 7.82421 16.117H7.44261L9.65198 21.4894H13.2552C15.5392 21.4894 17.3975 23.4979 17.3975 25.9663C17.3975 26.9781 17.0734 27.9021 16.5478 28.6525H20.7113C22.0839 28.6525 23.1967 27.4499 23.1967 25.9663V23.6383C23.1967 19.4843 20.0812 16.117 16.2377 16.117Z" fill="black"/>
</svg>
