<svg width="27" height="23" viewBox="0 0 27 23" fill="none" xmlns="http://www.w3.org/2000/svg">
<path d="M0.600728 10.8606L9.45256 1.28899C10.2429 0.434377 11.5707 1.01645 11.5458 2.23188L11.4349 7.65892L18.4435 7.59874C19.1289 7.59286 19.668 8.19301 19.6526 8.94488L19.5417 14.3719C19.5263 15.1238 18.9626 15.7334 18.2772 15.7393L11.2685 15.7995L11.1576 21.2265C11.1329 22.4363 9.7859 23.047 9.02507 22.2057L0.561445 12.7827C0.0930369 12.2554 0.110599 11.3961 0.600728 10.8606ZM16.507 1.51103L16.4607 3.77229C16.4531 4.1454 16.7252 4.44828 17.0653 4.44536L21.3942 4.40819C22.3063 4.40036 23.0267 5.20244 23.0063 6.20305L22.7844 17.0571C22.764 18.0577 22.0105 18.8725 21.0984 18.8803L16.7695 18.9175C16.4294 18.9204 16.1449 19.228 16.1372 19.6011L16.091 21.8624C16.0834 22.2355 16.3554 22.5384 16.6956 22.5355L21.0244 22.4983C23.7557 22.4749 26.0214 20.025 26.0826 17.0288L26.3045 6.17473C26.3657 3.17855 24.1994 0.766721 21.4681 0.790172L17.1392 0.827339C16.7991 0.830259 16.5146 1.13792 16.507 1.51103Z" fill="black"/>
</svg>
