<svg width="24" height="27" viewBox="0 0 24 27" fill="none" xmlns="http://www.w3.org/2000/svg">
<path d="M14.4282 0.619485C13.5808 0.231143 12.6461 0 11.652 0C8.85918 0 6.47624 1.71315 5.48737 4.1368H9.71071L14.4282 0.619485ZM17.8167 4.1368C17.4057 3.13 16.7415 2.2649 15.9185 1.57612L12.4838 4.1368H17.8167ZM11.652 13.2377C15.3292 13.2377 18.3103 10.2742 18.3103 6.61887C18.3103 6.3355 18.2609 6.06558 18.2266 5.79151H5.07747C5.04262 6.06558 4.99372 6.3355 4.99372 6.61887C4.99372 10.2742 7.97487 13.2377 11.652 13.2377ZM4.16144 15.4975V26.4755H10.8333L5.71209 15.0207C5.17816 15.1185 4.65768 15.2785 4.16144 15.4975ZM0 23.9934C0 25.3642 1.11787 26.4755 2.49686 26.4755V16.5596C0.982099 17.8342 0 19.7149 0 21.8423V23.9934ZM13.3166 21.5113H10.4358L12.6554 26.4755H13.3166C14.6935 26.4755 15.8135 25.3622 15.8135 23.9934C15.8135 22.6247 14.6935 21.5113 13.3166 21.5113ZM16.3128 14.8925H15.4436C14.2867 15.4189 13.005 15.7198 11.652 15.7198C10.299 15.7198 9.01731 15.4189 7.86043 14.8925H7.47706L9.69667 19.8566H13.3166C15.6111 19.8566 17.478 21.7125 17.478 23.9934C17.478 24.9283 17.1524 25.7821 16.6244 26.4755H20.8072C22.1862 26.4755 23.304 25.3642 23.304 23.9934V21.8423C23.304 18.0039 20.1741 14.8925 16.3128 14.8925Z" fill="black"/>
</svg>
